<?xml version="1.0" encoding="UTF-8" standalone="no"?>
<!-- Creator: CorelDRAW 2020 (64-Bit) -->

<svg
   xml:space="preserve"
   width="210mm"
   height="297mm"
   version="1.1"
   style="shape-rendering:geometricPrecision; text-rendering:geometricPrecision; image-rendering:optimizeQuality; fill-rule:evenodd; clip-rule:evenodd"
   viewBox="0 0 21000 29700"
   id="svg29"
   sodipodi:docname="Aura logo.svg"
   xmlns:inkscape="http://www.inkscape.org/namespaces/inkscape"
   xmlns:sodipodi="http://sodipodi.sourceforge.net/DTD/sodipodi-0.dtd"
   xmlns="http://www.w3.org/2000/svg"
   xmlns:svg="http://www.w3.org/2000/svg"><sodipodi:namedview
   id="namedview31"
   pagecolor="#ffffff"
   bordercolor="#000000"
   borderopacity="0.25"
   inkscape:showpageshadow="2"
   inkscape:pageopacity="0.0"
   inkscape:pagecheckerboard="0"
   inkscape:deskcolor="#d1d1d1"
   inkscape:document-units="mm" />
 <defs
   id="defs4">
  <style
   type="text/css"
   id="style2">
   <![CDATA[
    .fil0 {fill:white}
   ]]>
  </style>
 </defs>
 <g
   id="Layer_x0020_1"
   inkscape:label="Layer 1">
  <metadata
   id="CorelCorpID_0Corel-Layer" />
  <g
   id="_2145527258032">
   <path
   class="fil0"
   d="M12524.81 9181.27c90.25,130.59 -41.85,1037.91 88.56,1467.73 0.62,0.27 434,352.47 700.16,9.43 -6.46,-3.83 -15.9,-6.59 -20.74,-8.8l-59.13 -27.38c-233.37,-135.76 -0.17,-1073.71 -116.75,-1445.76 -120.85,-385.64 -828.71,-412.63 -1050.57,-337.54 -79.2,26.81 -71.23,26.53 -116.88,74.1 84.63,-4.55 586.87,-98.56 575.35,268.22z"
   id="path7" />
   <path
   class="fil0"
   d="M4858.46 10716.2c182.22,138.04 444.42,126.79 596.42,-31.31 -5.27,-5.54 -13.21,-11.6 -17.32,-15.04 -101.29,-84.72 -135.66,-80.13 -144.77,-220.91 -20.44,-315.67 32.45,-887.88 -4.78,-1190.92 -55.91,-455.01 -925.03,-545.08 -1100.91,-360.55 664.1,-22.74 524.79,369.11 525.02,1152.33 0.08,294.35 -54.29,514.43 146.34,666.4z"
   id="path9" />
   <path
   class="fil0"
   d="M9208.59 9064.99c219.13,-281.57 253.62,86.62 253.64,296.8l0.54 899.71c0,519.65 -52.34,305.65 -108.23,505.64l781.07 0.35c-30.1,-113.94 -28.33,-40.19 -74.05,-153.72 -56.02,-139.11 -28.96,-1128.79 -29.31,-1305.51 -1.41,-699.13 -735.41,-548.41 -823.66,-243.27z"
   id="path11" />
   <path
   class="fil0"
   d="M6513.88 8850.79c130.44,282.55 86.87,286.81 86.87,696.23 0,606.25 -110.31,1165.85 300.73,1244.03 254.69,48.44 463.18,-51.87 521.32,-234.68 -72.51,59.18 -59.81,77.94 -178.31,71.99 -94.09,-130.6 -81.81,-192.69 -81.05,-393.19l-1.35 -1384.73 -648.21 0.35z"
   id="path13" />
   <path
   class="fil0"
   d="M7499.62 8853.3l60.02 85.57c12.12,20.34 29.79,65.52 34.07,88.2 29.36,155.57 -12.04,1415.58 17.06,1742.73l669.18 -5.15c-67.17,-189.35 -109.99,-98.42 -110.97,-396.57l0.17 -1518.2 -669.53 3.42z"
   id="path15" />
   <path
   class="fil0"
   d="M4478.22 10797.56c-37.81,-85.86 -79.9,-63.59 -146.21,-141.46 -37.98,-44.6 -58.23,-89.68 -80.84,-153.76 -45.11,-127.83 -46.55,-316.25 -34.01,-453.77 42.37,-464.55 457.58,-304.98 444.76,-511.41 -126.84,57.72 -107.41,72.73 -303.02,77.75 -312.2,8.01 -629.62,123.25 -701.18,446.89 -129.06,583.67 293.59,784.8 820.5,735.76z"
   id="path17" />
   <path
   class="fil0"
   d="M11953.91 10792.83l332.41 12.18c-52.35,-181.77 -265.9,-130.71 -228.72,-730.18 19.54,-315.05 205.8,-371.64 446.94,-481.1 19.33,-111.24 13.11,-9.47 -47.85,-48.94 -110.45,154.81 -727.21,-54.44 -930.06,417.71 -179.02,416.68 68.72,749.82 427.28,830.33z"
   id="path19" />
   <path
   class="fil0"
   d="M11623.17 9361.79c76.39,321.29 670.17,241.15 546.52,-181.98 -92.72,-317.26 -637.79,-201.87 -546.52,181.98z"
   id="path21" />
   <path
   class="fil0"
   d="M3784.99 9361.79c76.98,312.52 605.71,272.89 552.73,-131.04 -45.97,-350.54 -651.37,-269.39 -552.73,131.04z"
   id="path23" />
   <path
   class="fil0"
   d="M10336.22 8852.2c-297.18,142.99 -88.38,608.31 249.89,441.88 251.66,-123.81 92.53,-606.64 -249.89,-441.88z"
   id="path25" />
  </g>
 </g>
</svg>
